<!DOCTYPE svg PUBLIC "-//W3C//DTD SVG 20010904//EN" "http://www.w3.org/TR/2001/REC-SVG-20010904/DTD/svg10.dtd">
<svg version="1.0" xmlns="http://www.w3.org/2000/svg" width="258px" height="258px" viewBox="0 0 2580 2580"
     preserveAspectRatio="xMidYMid meet">
    <g id="layer1" fill="#6960b7" stroke="none">
        <path d="M526 1476 c-22 -58 -80 -119 -130 -137 -44 -16 -45 -25 -5 -33 45 -9 87 -58 94 -111 l7 -44 83 87 83 87 -31 10 c-45 15 -69 54 -76 127 l-6 63 -19 -49z"/>
        <path d="M1518 1458 c-8 -18 -36 -56 -61 -84 l-46 -51 29 -21 c32 -24 50 -73 50 -137 l1 -40 21 30 c12 17 52 61 90 99 37 38 68 71 68 72 0 1 -13 5 -29 9 -40 9 -82 56 -95 110 l-12 45 -16 -32z"/>
    </g>
    <g id="layer2" fill="#009de5" stroke="none">
        <path d="M180 1829 c-54 -24 -115 -81 -141 -131 -14 -28 -19 -58 -19 -123 0 -99 15 -138 77 -197 87 -84 196 -101 302 -47 71 36 105 73 138 147 76 172 -59 372 -252 372 -39 0 -76 -8 -105 -21z"/>
        <path d="M1199 1836 c-20 -7 -49 -22 -65 -34 -16 -11 -167 -159 -336 -329 -336 -337 -348 -353 -348 -458 0 -196 211 -334 385 -251 38 18 122 96 362 337 255 257 316 324 337 369 48 104 27 210 -58 296 -77 77 -183 104 -277 70z"/>
        <path d="M2200 1833 c-38 -13 -96 -67 -353 -322 -169 -168 -325 -330 -345 -360 -35 -51 -37 -57 -37 -135 0 -93 18 -137 82 -198 54 -52 115 -78 188 -78 106 0 120 11 468 358 175 174 327 334 338 354 15 29 19 58 19 126 0 80 -3 92 -29 133 -74 118 -204 166 -331 122z"/>
    </g>

</svg>