<?xml version="1.0" standalone="no"?>
<!DOCTYPE svg PUBLIC "-//W3C//DTD SVG 20010904//EN"
        "http://www.w3.org/TR/2001/REC-SVG-20010904/DTD/svg10.dtd">
<svg version="1.0" xmlns="http://www.w3.org/2000/svg"
     width="595.000000pt" height="257.000000pt" viewBox="0 0 595.000000 257.000000"
     preserveAspectRatio="xMidYMid meet">
    <g transform="translate(0.000000,257.000000) scale(0.100000,-0.100000)"
       fill="#C5CAE9" stroke="none">
        <path d="M5222 2008 c-34 -116 -64 -213 -66 -215 -2 -2 -15 1 -30 7 -128 48
-226 -48 -319 -316 -36 -102 -103 -228 -117 -219 -10 6 29 156 76 290 52 148
52 147 11 178 -61 47 -84 39 -148 -50 -30 -43 -72 -106 -93 -140 -20 -35 -39
-63 -41 -63 -8 0 4 50 25 108 l23 63 -33 34 c-25 26 -43 35 -66 35 -30 0 -34
-4 -54 -57 -12 -32 -40 -113 -62 -180 -27 -82 -59 -154 -99 -222 -33 -56 -61
-101 -64 -101 -16 0 39 188 112 382 l18 47 -35 36 c-23 23 -43 35 -62 35 -31
0 -37 -9 -73 -107 -38 -105 -210 -417 -225 -408 -11 7 23 137 78 299 l47 138
-33 29 c-22 20 -43 29 -66 29 -32 0 -39 -7 -91 -81 -31 -44 -71 -105 -90 -136
-18 -30 -36 -50 -40 -44 -3 6 -1 11 5 11 6 0 9 4 6 8 -3 5 4 32 14 61 11 28
20 62 20 74 0 33 -49 77 -86 77 -28 0 -38 -11 -109 -115 -43 -63 -82 -112 -86
-110 -4 3 5 39 19 81 l27 75 -37 35 c-26 23 -47 34 -68 34 -27 0 -34 -6 -51
-46 -49 -110 -150 -462 -164 -572 -7 -51 -6 -54 30 -87 37 -36 92 -48 99 -22
31 105 56 168 98 244 68 124 81 125 51 5 -33 -139 -31 -164 15 -202 26 -22 45
-30 66 -28 28 3 32 10 66 98 28 76 107 238 126 259 12 14 12 -15 -1 -83 -24
-124 -21 -156 18 -194 23 -23 42 -32 66 -32 47 0 64 12 107 80 22 33 42 60 45
60 4 0 9 -11 13 -23 9 -38 44 -75 77 -82 44 -10 84 11 124 65 l35 48 39 -40
c33 -32 46 -39 72 -36 32 3 34 7 69 98 38 101 118 257 135 264 7 2 4 -30 -7
-83 -26 -128 -24 -153 16 -195 26 -28 41 -36 69 -36 30 0 42 8 84 56 l49 56
41 -41 c34 -34 47 -41 81 -41 34 0 45 6 75 39 19 22 41 49 47 61 11 21 12 21
47 -19 31 -37 39 -41 81 -41 63 0 131 40 207 122 75 79 115 158 122 235 5 53
3 62 -22 91 -23 28 -33 32 -76 32 -43 0 -49 -3 -49 -20 0 -12 10 -25 25 -32
32 -14 41 -49 24 -91 -35 -87 -149 -221 -170 -200 -13 13 47 241 157 595 41
130 74 248 74 262 0 35 -61 86 -104 86 l-33 0 -61 -212z m-147 -465 c-82 -202
-138 -304 -157 -285 -24 24 85 317 148 400 24 30 28 32 42 18 14 -13 10 -27
-33 -133z"/>
        <path d="M4286 1913 c-20 -58 -31 -152 -22 -187 10 -40 56 -36 90 9 33 43 65
113 66 141 0 29 -60 84 -92 84 -22 0 -29 -7 -42 -47z"/>
        <path d="M2461 1788 c-4 -13 -14 -46 -21 -75 -14 -62 24 -52 -325 -88 -583
-60 -1042 -142 -1087 -192 -31 -35 -50 -145 -27 -158 6 -4 37 5 70 20 110 49
530 131 975 190 242 32 344 40 344 29 0 -5 -18 -83 -41 -174 -22 -91 -53 -228
-70 -305 -16 -76 -31 -141 -34 -143 -2 -2 -6 18 -10 45 -8 70 -32 145 -70 225
-26 54 -32 75 -24 89 16 31 29 22 29 -22 0 -38 2 -40 27 -37 35 4 66 56 67
113 1 61 -15 75 -87 75 -125 0 -183 -57 -175 -173 4 -58 2 -64 -58 -177 -82
-154 -120 -215 -128 -202 -7 12 50 207 94 317 37 93 37 104 2 138 -29 27 -79
36 -97 18 -6 -6 -28 -4 -58 6 -94 31 -167 -16 -241 -156 -20 -39 -51 -111 -67
-158 -32 -96 -128 -268 -142 -254 -10 10 59 256 104 371 16 41 29 80 29 87 0
23 -61 63 -96 63 -33 0 -38 -5 -108 -112 -40 -62 -82 -128 -93 -147 -12 -20
-23 -29 -27 -22 -4 6 -2 11 4 11 6 0 9 4 5 10 -3 5 6 37 20 71 14 34 25 70 25
80 0 22 -65 79 -90 79 -26 0 -38 -14 -121 -139 -40 -61 -76 -108 -80 -105 -5
3 0 27 11 55 28 69 26 103 -6 128 -65 51 -175 10 -295 -109 -89 -89 -131 -165
-137 -251 -4 -56 -3 -60 31 -94 34 -34 65 -43 101 -29 24 9 19 37 -9 62 -37
33 -33 76 14 148 39 59 126 152 135 143 3 -3 -15 -68 -40 -144 -56 -172 -84
-287 -84 -341 0 -35 6 -47 35 -73 22 -19 47 -31 65 -31 27 0 29 4 40 54 6 29
35 102 65 162 84 168 111 191 76 66 -11 -39 -22 -95 -26 -124 -7 -54 -6 -54
34 -91 28 -25 51 -37 70 -37 27 0 31 5 52 68 26 79 105 244 130 271 10 10 15
22 12 25 -4 3 -1 6 6 6 8 0 11 -6 7 -17 -4 -9 -14 -59 -23 -110 -13 -76 -13
-99 -3 -123 24 -58 90 -87 139 -61 10 6 42 45 71 87 33 47 55 72 58 63 2 -8
18 -29 35 -46 26 -28 38 -33 78 -33 44 0 50 3 87 47 l40 47 27 -32 c23 -27 34
-32 70 -32 40 0 47 4 88 51 26 29 80 120 127 210 45 88 83 159 86 159 9 0 35
-70 44 -121 12 -65 -3 -139 -36 -172 -22 -23 -31 -25 -84 -20 -59 6 -60 6 -60
-20 0 -41 40 -61 119 -61 55 0 76 5 113 27 51 30 88 91 88 145 0 18 5 32 10
32 6 0 10 -22 10 -49 0 -43 4 -53 31 -75 50 -42 92 -36 148 22 26 26 54 58 64
72 16 24 17 25 29 5 6 -11 25 -32 41 -47 61 -58 166 -26 250 77 57 71 155 263
201 395 26 74 38 95 52 95 27 0 24 -24 -24 -210 -43 -164 -92 -405 -99 -485
-4 -38 -1 -49 21 -69 15 -15 41 -25 70 -28 44 -5 45 -5 53 28 9 33 11 34 94
51 328 66 1359 188 1591 188 l97 0 11 38 c7 20 10 55 8 77 l-3 40 -145 -2
c-221 -2 -766 -69 -1295 -160 -148 -26 -283 -47 -300 -47 -29 -1 -30 0 -27 44
1 25 27 154 58 285 89 387 83 340 49 375 -29 30 -77 41 -90 20 -10 -17 -23
-11 -27 12 -4 32 -63 68 -110 68 -32 0 -40 -4 -48 -26 -16 -41 -12 -93 10
-122 l20 -28 -20 -59 c-11 -33 -47 -114 -79 -180 -114 -233 -237 -354 -216
-212 6 37 12 47 35 57 45 19 137 123 170 192 24 51 30 76 30 134 0 65 -2 72
-29 98 -38 36 -104 46 -149 22 -61 -32 -130 -162 -176 -335 -13 -48 -32 -103
-41 -122 -34 -66 -88 -140 -96 -132 -14 14 138 634 160 656 6 6 64 13 131 15
l120 4 10 37 c22 81 24 80 -102 83 l-113 3 -3 35 c-4 39 -23 65 -64 86 -41 21
-77 18 -87 -8z m-707 -642 c-18 -60 -92 -235 -128 -303 -44 -81 -74 -103 -68
-48 9 79 99 301 154 378 20 28 22 29 35 11 7 -10 10 -27 7 -38z"/>
    </g>
</svg>
