<!DOCTYPE svg PUBLIC "-//W3C//DTD SVG 20010904//EN" "http://www.w3.org/TR/2001/REC-SVG-20010904/DTD/svg10.dtd">
<svg version="1.0" xmlns="http://www.w3.org/2000/svg" width="258px" height="258px" viewBox="0 0 2580 2580" preserveAspectRatio="xMidYMid meet">
<g id="layer1" fill="#11456d" stroke="none">
 <path d="M180 1819 c-55 -25 -105 -71 -133 -124 -31 -57 -31 -183 0 -240 53 -98 139 -146 261 -144 87 2 128 -13 155 -55 26 -40 32 -100 13 -146 -67 -169 65 -360 249 -360 105 1 124 15 417 308 l267 266 28 -20 c41 -30 56 -85 47 -164 -14 -122 -10 -201 13 -245 48 -90 137 -144 238 -145 108 0 126 14 476 366 355 358 356 359 347 479 -15 176 -183 286 -354 229 -42 -15 -81 -49 -290 -256 -229 -227 -244 -240 -272 -234 -34 8 -76 49 -92 90 -7 19 -9 58 -4 107 9 103 -12 166 -76 229 -84 85 -216 104 -313 47 -23 -14 -143 -127 -267 -251 -146 -147 -232 -226 -245 -226 -31 0 -65 28 -81 66 -9 21 -14 71 -14 136 0 87 -4 111 -24 153 -46 97 -135 155 -241 155 -39 0 -76 -8 -105 -21z"/>
 </g>

</svg>