<!DOCTYPE svg PUBLIC "-//W3C//DTD SVG 20010904//EN" "http://www.w3.org/TR/2001/REC-SVG-20010904/DTD/svg10.dtd">
<svg version="1.0" xmlns="http://www.w3.org/2000/svg" width="559px" height="556px" viewBox="0 0 5590 5560"
     preserveAspectRatio="xMidYMid meet">
    <g id="layer1" fill="#903c9b" stroke="none">
        <path d="M1358 3143 c-9 -10 -23 -32 -31 -49 -28 -55 -114 -140 -175 -172 -99 -53 -105 -79 -26 -112 98 -42 130 -83 154 -198 14 -61 31 -79 65 -66 12 5 78 66 145 137 143 151 145 157 55 202 -73 36 -102 82 -116 182 -13 90 -36 115 -71 76z"/>
        <path d="M3173 3071 c-24 -33 -67 -86 -98 -119 -30 -33 -55 -68 -55 -77 0 -10 24 -44 54 -75 60 -62 76 -103 76 -190 0 -61 17 -103 43 -108 10 -2 33 15 59 45 24 26 89 96 146 154 128 134 131 147 38 188 -78 36 -124 87 -151 173 -17 53 -24 63 -45 66 -21 2 -33 -8 -67 -57z"/>
    </g>
    <g id="layer2" fill="#009de5" stroke="none">
        <path d="M815 3824 c-236 -47 -414 -261 -415 -500 0 -72 35 -199 73 -264 137 -233 448 -320 692 -192 122 64 231 200 256 321 16 79 6 231 -20 311 -57 168 -203 290 -387 326 -89 17 -107 17 -199 -2z"/>
        <path d="M2690 3825 c-82 -17 -128 -37 -204 -87 -37 -25 -280 -260 -619 -599 -601 -601 -584 -581 -624 -729 -40 -148 -13 -299 77 -432 150 -226 480 -284 707 -126 59 41 1060 1028 1141 1125 98 118 142 246 128 374 -25 247 -183 423 -423 474 -81 17 -98 17 -183 0z"/>
        <path d="M4580 3825 c-170 -34 -202 -61 -806 -667 -286 -288 -542 -551 -568 -585 -48 -65 -79 -153 -92 -269 -8 -67 17 -184 58 -266 88 -177 312 -297 507 -273 71 9 176 41 221 68 57 33 1155 1134 1200 1202 137 210 110 474 -65 650 -119 119 -295 173 -455 140z"/>
    </g>

</svg>